<svg xmlns="http://www.w3.org/2000/svg" viewBox="0 0 401.69 146.44"><defs><style>.a{fill:#e73b2b;}.b{fill:#162d4a;}</style></defs><title>training360-logo</title><path class="a" d="M301.45,38.22q1.76-1.5,3.53-3c2.57-2.14,5.14-4.2,7.67-6.17s5.28-4,7.89-5.88,5.51-3.84,8.24-5.59c2.9-1.86,5.8-3.6,8.67-5.19,3.09-1.71,6.07-3.2,8.9-4.44A61.47,61.47,0,0,1,355,4.85a27.77,27.77,0,0,1,8-1.07,11,11,0,0,1,5.87,1.74,13.72,13.72,0,0,1,.29,4.83,42.41,42.41,0,0,1-3.91,12.74,120.73,120.73,0,0,1-8.39,15.13h8a98.63,98.63,0,0,0,4.8-10A41.61,41.61,0,0,0,373.1,15c.16-3.31-.47-5.88-1.79-7.75-.54-.76-1.18-1.68-1.81-2.56L368.3,3a3.79,3.79,0,0,0-.3-.4l-.32-.36-.35-.33-.37-.3A9.48,9.48,0,0,0,360.81,0,29.12,29.12,0,0,0,353,1.58a68.41,68.41,0,0,0-8.51,3.54c-2.79,1.36-5.72,3-8.77,4.79-2.83,1.69-5.7,3.53-8.57,5.47-2.7,1.83-5.43,3.77-8.16,5.8s-5.22,4-7.84,6.06-5.07,4.12-7.63,6.3c-1.82,1.55-3.61,3.11-5.39,4.68Z"/><path class="a" d="M311.19,92.62l-1.74,1.7A343.31,343.31,0,0,1,282,118.18a201.29,201.29,0,0,1-23.55,16,74.76,74.76,0,0,1-17,7.46,29.31,29.31,0,0,1-3.94.8,18.8,18.8,0,0,1-3.2.13,10.76,10.76,0,0,1-2.08-.34,8.77,8.77,0,0,1-.82-1.51,12.71,12.71,0,0,1-.86-4.64,25.48,25.48,0,0,1,.56-5.4,46.48,46.48,0,0,1,1.63-5.87,77.42,77.42,0,0,1,3.72-8.87c1.37-2.82,2.95-5.74,4.7-8.69,1.63-2.77,3.42-5.6,5.34-8.46,1.36-2,2.82-4.11,4.33-6.2h-3.12c-1.15,1.56-2.27,3.1-3.34,4.62-2,2.84-3.87,5.63-5.59,8.37-1.84,2.92-3.52,5.79-5,8.58a88.68,88.68,0,0,0-4.12,8.71,52.4,52.4,0,0,0-1.95,5.77,25.72,25.72,0,0,0-.9,5.28,11.87,11.87,0,0,0,.49,4.48,6.35,6.35,0,0,0,2.36,3.25l4.26,3a8.63,8.63,0,0,0,2.1,1.07,12.46,12.46,0,0,0,2.7.6,19.7,19.7,0,0,0,3.37,0,29.11,29.11,0,0,0,4.1-.61,70.44,70.44,0,0,0,17.5-6.87,181.35,181.35,0,0,0,23.91-15.47,305.23,305.23,0,0,0,27.49-23.5q3.75-3.6,7.4-7.32Z"/><polygon class="b" points="11.91 50.73 0 50.73 0 44.68 30.34 44.68 30.34 50.73 18.37 50.73 18.37 86.16 11.91 86.16 11.91 50.73"/><path class="b" d="M40.38,44.68H54.54q6.75,0,10.55,3.15t3.79,9.48q0,8.11-7.17,11.55L71,86.16H63.49L55.25,70.34H47V86.16H40.38Zm13.27,20q4.27,0,6.37-1.92a6.85,6.85,0,0,0,2.11-5.31,6.86,6.86,0,0,0-2.08-5.36c-1.38-1.24-3.48-1.87-6.28-1.87H47V64.71Z"/><path class="b" d="M103.72,75.56H88.14l-3.73,10.6H77.89L92.7,44.68h6.46L114,86.16h-6.57Zm-2-5.75L96,53.51l-5.75,16.3Z"/><rect class="b" x="123.8" y="44.68" width="6.46" height="41.48"/><polygon class="b" points="144.36 44.68 151 44.68 170.31 73.9 170.31 44.68 176.83 44.68 176.83 86.16 171.38 86.16 150.82 55.23 150.82 86.16 144.36 86.16 144.36 44.68"/><rect class="b" x="191.53" y="44.68" width="6.46" height="41.48"/><polygon class="b" points="212.68 44.68 219.32 44.68 238.64 73.9 238.64 44.68 245.16 44.68 245.16 86.16 239.71 86.16 219.14 55.23 219.14 86.16 212.68 86.16 212.68 44.68"/><path class="b" d="M266.25,84.33A18.53,18.53,0,0,1,259,76.74a23.9,23.9,0,0,1-2.6-11.37,22.53,22.53,0,0,1,2.75-11.29,19.13,19.13,0,0,1,7.68-7.56,22.94,22.94,0,0,1,11.14-2.67,29.25,29.25,0,0,1,6.19.66,25.4,25.4,0,0,1,5.36,1.71l-.65,5.93A28.14,28.14,0,0,0,278,49.9q-7.23,0-10.9,4.27t-3.67,11.2q0,7.11,3.7,11.34T278,81a21.47,21.47,0,0,0,6.4-.89V70.93h-6.16V65.37h12.62V83.85a21.89,21.89,0,0,1-6.07,2.28A33.51,33.51,0,0,1,277,87a21.37,21.37,0,0,1-10.73-2.66"/><path class="a" d="M323.22,64.35a10.48,10.48,0,0,0,4.19-8.76,11,11,0,0,0-3.51-8.41,12.74,12.74,0,0,0-9-3.29c-3.63,0-6.51.94-8.56,2.79s-3.39,4.77-4,8.7l-.07.4h6.86l.06-.27A8,8,0,0,1,311,51.38a5.53,5.53,0,0,1,3.76-1.16A5.87,5.87,0,0,1,319,51.8a5.23,5.23,0,0,1,1.65,4,5.07,5.07,0,0,1-2.26,4.66c-.85.55-2.57.83-5.11.83H313v6h.34a10.65,10.65,0,0,1,5.17,1c1.87,1.11,2.79,2.95,2.79,5.61a6.87,6.87,0,0,1-1.88,4.94,6.36,6.36,0,0,1-4.72,1.9,6.89,6.89,0,0,1-4.61-1.5,7,7,0,0,1-2.21-4.36l-.05-.29h-6.66l0,.38a14.48,14.48,0,0,0,1.95,6.48c2.45,3.73,6.25,5.61,11.3,5.61a13.76,13.76,0,0,0,9.78-3.6,12.28,12.28,0,0,0,3.83-9.3c0-4.41-1.62-7.7-4.83-9.78"/><path class="a" d="M351.34,59.72c-.22,0-.52,0-.91.05l-.57.07L361,44.68H353L339.73,62.81c-2.71,3.68-4.08,7.22-4.08,10.53A13,13,0,0,0,339.88,83a14.24,14.24,0,0,0,10,4,14.1,14.1,0,0,0,14-14,13.07,13.07,0,0,0-3.71-9.33,11.91,11.91,0,0,0-8.9-3.94m5.88,13.67a7.43,7.43,0,0,1-7.39,7.32,7.39,7.39,0,1,1,7.39-7.32"/><path class="a" d="M397.05,49.35c-2.79-3.6-6.22-5.43-10.2-5.43s-7.4,1.83-10.19,5.43c-3.08,3.94-4.65,9.28-4.65,15.87,0,6.93,1.57,12.44,4.65,16.39,2.82,3.6,6.26,5.42,10.22,5.42s7.38-1.82,10.16-5.42c3.09-4,4.65-9.37,4.65-16.12s-1.56-12.2-4.64-16.14m-10.2.87c2.28,0,4.21,1.42,5.74,4.23a23.19,23.19,0,0,1,2.35,11,23,23,0,0,1-2.35,11c-1.53,2.83-3.46,4.27-5.74,4.27s-4.23-1.44-5.73-4.26a24.05,24.05,0,0,1-2.33-11.2,22.43,22.43,0,0,1,2.35-10.79c1.53-2.82,3.45-4.24,5.71-4.24"/></svg>