<svg width="300" height="300" viewBox="0 0 300 300" xmlns="http://www.w3.org/2000/svg"><defs><clipPath id="clip-path-background-color-1776464855950"><rect x="0" y="0" width="300" height="300"/></clipPath><clipPath id="clip-path-dot-color-1776464855950"><path d="M144.44 11h11.12h11.12h11.12h11.12v11.12v11.12h-11.12v11.12h11.12h11.12v11.12h-11.12v11.12h-11.12v-11.12h-11.12v-11.12h-11.12v-11.12v-11.12h-11.12v-11.12zM99.96 22.12h11.12h11.12v11.12h-11.12h-11.12v-11.12zM133.32 22.12h11.12v11.12h-11.12v-11.12zM122.2 33.24h11.12v11.12h-11.12v-11.12zM99.96 44.36h11.12h11.12v11.12h11.12v11.12h-11.12v11.12h-11.12v-11.12h-11.12v-11.12v-11.12zM155.56 55.48h11.12v11.12h11.12v11.12v11.12h11.12v-11.12v-11.12h11.12v11.12v11.12v11.12h-11.12h-11.12v11.12v11.12v11.12v11.12v11.12h-11.12v11.12h11.12v11.12v11.12h-11.12v-11.12h-11.12h-11.12v-11.12v-11.12v-11.12h11.12h11.12v-11.12v-11.12v-11.12h-11.12h-11.12v-11.12h11.12h11.12v-11.12v-11.12h-11.12v11.12h-11.12v-11.12v-11.12h11.12v-11.12zM99.96 77.72h11.12v11.12v11.12v11.12h-11.12v-11.12v-11.12v-11.12zM122.2 77.72h11.12v11.12h-11.12v-11.12zM133.32 88.84h11.12v11.12h-11.12v-11.12zM22.12 99.96h11.12v11.12h-11.12v-11.12zM44.36 99.96h11.12h11.12h11.12h11.12v11.12h-11.12h-11.12v11.12h11.12h11.12v-11.12h11.12v11.12v11.12h-11.12h-11.12h-11.12v11.12h-11.12v-11.12h-11.12h-11.12v-11.12v-11.12h11.12v-11.12zM122.2 99.96h11.12v11.12h11.12v11.12h11.12v11.12h-11.12h-11.12h-11.12v-11.12v-11.12v-11.12zM200.04 99.96h11.12h11.12v11.12h11.12v11.12h11.12v11.12h11.12h11.12h11.12v11.12v11.12h-11.12h-11.12v11.12v11.12h-11.12v-11.12h-11.12v-11.12h-11.12v11.12v11.12v11.12h11.12h11.12v11.12h11.12v11.12h-11.12v11.12h11.12v-11.12h11.12h11.12v11.12v11.12h-11.12v11.12v11.12h-11.12h-11.12v-11.12h11.12v-11.12h-11.12v11.12h-11.12v11.12h-11.12h-11.12v-11.12h-11.12v11.12v11.12h-11.12h-11.12v-11.12h11.12v-11.12v-11.12v-11.12h-11.12v11.12v11.12h-11.12v-11.12v-11.12h-11.12v11.12v11.12h-11.12v11.12h-11.12v-11.12v-11.12h11.12v-11.12h-11.12h-11.12v-11.12h-11.12h-11.12v-11.12h-11.12h-11.12h-11.12h-11.12v-11.12h11.12h11.12h11.12h11.12h11.12h11.12h11.12v11.12v11.12h11.12h11.12v-11.12h11.12v11.12h11.12v-11.12v-11.12h11.12v-11.12h11.12h11.12v-11.12v-11.12v-11.12v-11.12h-11.12v-11.12v-11.12v-11.12zM233.4 99.96h11.12h11.12v11.12h11.12v11.12h-11.12h-11.12v-11.12h-11.12v-11.12zM266.76 99.96h11.12v11.12h-11.12v-11.12zM11 111.08h11.12v11.12h-11.12v-11.12zM277.88 122.2h11.12v11.12h-11.12v-11.12zM11 133.32h11.12v11.12h-11.12v-11.12zM111.08 133.32h11.12v11.12v11.12h-11.12v11.12h-11.12v11.12h-11.12h-11.12v-11.12h11.12v-11.12h11.12v-11.12h11.12v-11.12zM22.12 144.44h11.12v11.12h-11.12v-11.12zM44.36 144.44h11.12v11.12v11.12h-11.12v-11.12v-11.12zM66.6 144.44h11.12h11.12v11.12h-11.12h-11.12v-11.12zM11 155.56h11.12v11.12h11.12v11.12h-11.12v11.12v11.12h-11.12v-11.12v-11.12v-11.12v-11.12zM188.92 155.56h11.12v11.12h-11.12v-11.12zM111.08 166.68h11.12h11.12v11.12h-11.12h-11.12v-11.12zM133.32 177.8h11.12v11.12h-11.12v-11.12zM255.64 177.8h11.12h11.12h11.12v11.12v11.12h-11.12h-11.12h-11.12v-11.12v-11.12zM33.24 188.92h11.12v11.12h-11.12v-11.12zM211.16 200.04h-11.12v11.12v11.12v11.12h11.12h11.12h11.12v-11.12v-11.12v-11.12h-11.12h-11.12zM211.16 211.16h11.12v11.12h-11.12v-11.12zM99.96 222.28h11.12v11.12h11.12v11.12v11.12h11.12v11.12v11.12h11.12v11.12h-11.12h-11.12h-11.12v-11.12h-11.12v-11.12h11.12v-11.12h-11.12v-11.12v-11.12v-11.12zM277.88 244.52h11.12v11.12v11.12h-11.12v11.12h11.12v11.12h-11.12h-11.12h-11.12h-11.12h-11.12h-11.12h-11.12v-11.12h-11.12v-11.12h11.12h11.12v11.12h11.12h11.12v-11.12h11.12v11.12h11.12v-11.12v-11.12h11.12v-11.12zM155.56 255.64h11.12v11.12h-11.12v-11.12zM155.56 277.88h11.12h11.12h11.12h11.12v11.12h-11.12h-11.12h-11.12h-11.12v-11.12z" fill-rule="evenodd"/><path d="M11 11h11.12h11.12h11.12h11.12h11.12h11.12h11.12v11.12v11.12v11.12v11.12v11.12v11.12v11.12h-11.12h-11.12h-11.12h-11.12h-11.12h-11.12h-11.12v-11.12v-11.12v-11.12v-11.12v-11.12v-11.12v-11.12zM33.24 22.12h-11.12v11.12v11.12v11.12v11.12v11.12h11.12h11.12h11.12h11.12h11.12v-11.12v-11.12v-11.12v-11.12v-11.12h-11.12h-11.12h-11.12h-11.12z" fill-rule="evenodd"/><path d="M33.24 33.24h11.12h11.12h11.12v11.12v11.12v11.12h-11.12h-11.12h-11.12v-11.12v-11.12v-11.12z" fill-rule="evenodd"/><path d="M211.16 11h11.12h11.12h11.12h11.12h11.12h11.12h11.12v11.12v11.12v11.12v11.12v11.12v11.12v11.12h-11.12h-11.12h-11.12h-11.12h-11.12h-11.12h-11.12v-11.12v-11.12v-11.12v-11.12v-11.12v-11.12v-11.12zM233.4 22.12h-11.12v11.12v11.12v11.12v11.12v11.12h11.12h11.12h11.12h11.12h11.12v-11.12v-11.12v-11.12v-11.12v-11.12h-11.12h-11.12h-11.12h-11.12z" fill-rule="evenodd"/><path d="M233.4 33.24h11.12h11.12h11.12v11.12v11.12v11.12h-11.12h-11.12h-11.12v-11.12v-11.12v-11.12z" fill-rule="evenodd"/><path d="M11 211.16h11.12h11.12h11.12h11.12h11.12h11.12h11.12v11.12v11.12v11.12v11.12v11.12v11.12v11.12h-11.12h-11.12h-11.12h-11.12h-11.12h-11.12h-11.12v-11.12v-11.12v-11.12v-11.12v-11.12v-11.12v-11.12zM33.24 222.28h-11.12v11.12v11.12v11.12v11.12v11.12h11.12h11.12h11.12h11.12h11.12v-11.12v-11.12v-11.12v-11.12v-11.12h-11.12h-11.12h-11.12h-11.12z" fill-rule="evenodd"/><path d="M33.24 233.4h11.12h11.12h11.12v11.12v11.12v11.12h-11.12h-11.12h-11.12v-11.12v-11.12v-11.12z" fill-rule="evenodd"/></clipPath></defs><rect x="0" y="0" height="300" width="300" clip-path="url('#clip-path-background-color-1776464855950')" fill="#ffffff"/><rect x="0" y="0" height="300" width="300" clip-path="url('#clip-path-dot-color-1776464855950')" fill="#000000"/></svg>